<svg width="1000" height="247" viewBox="0 0 1000 247" fill="none" xmlns="http://www.w3.org/2000/svg">
<path d="M99.1463 173.205C99.6341 173.632 100.244 173.876 100.884 173.845C102.012 173.815 103.018 173.144 103.476 172.107C126.677 118.072 169.238 77.0274 197.256 46.3202C197.683 45.8933 197.469 45.4663 197.256 45.0394C197.073 44.8565 196.86 44.7955 196.616 44.826C196.402 44.826 196.402 44.826 196.189 45.0394C131.768 79.1925 98.7195 117.279 92.439 125.025C92.0426 125.452 91.4939 125.696 90.9451 125.665C90.5182 125.665 90.3048 125.452 89.8475 125.238L55.2134 102.154C55 101.941 54.7865 101.941 54.3597 101.941C53.6585 101.941 53.0792 102.52 53.0792 103.222V103.649C57.8048 115.907 73.1402 152.225 99.1463 173.205Z" fill="#BD78F3"/>
<path d="M170.579 94.3174V147.468C170.579 157.623 148.963 197.783 101.006 212.298C53.0488 197.57 31.4329 157.592 31.4329 147.468V44.3685C76.0366 26.2247 125.976 26.2247 170.579 44.3685C175.976 41.1362 181.799 37.9038 187.652 34.641C185.701 31.3782 182.835 28.7557 179.451 27.0785C154.604 16.7106 127.927 11.3742 101.006 11.3437C74.0853 11.2827 47.4085 16.6192 22.5914 27.109C16.3109 29.945 12.2866 36.1962 12.2866 43.1183V147.499C12.2866 167.808 41.0366 214.494 96.128 231.143C97.7134 231.54 99.3902 231.753 101.067 231.753C102.744 231.753 104.421 231.54 106.037 231.113C161.128 214.707 189.878 168.021 189.878 147.468V72.9108C183.567 79.8328 177.073 86.755 170.579 94.3174Z" fill="white"/>
<path d="M487.805 112.827H484.756V115.877H487.805V112.827Z" fill="white"/>
<path d="M237.47 121.03V120.725C237.348 113.894 238.689 107.094 241.463 100.752C244.238 94.4089 248.323 88.6456 253.537 83.8275C258.75 79.0095 264.939 75.2283 271.768 72.6973C278.598 70.1663 285.884 68.977 293.201 69.1295C313.354 69.1295 325.427 75.4112 335.335 84.5289L320.366 100.63C312.134 93.6465 303.72 89.3774 293.049 89.3774C275.031 89.3774 262.043 103.344 262.043 120.451V120.756C262.043 137.863 274.726 152.103 293.049 152.103C305.274 152.103 312.744 147.529 321.128 140.424L336.098 154.543C330.732 160.428 323.963 165.063 316.402 168.173C308.811 171.253 300.579 172.687 292.287 172.382C285.061 172.504 277.866 171.253 271.159 168.692C264.451 166.161 258.354 162.38 253.232 157.592C248.11 152.805 244.085 147.102 241.372 140.851C238.659 134.508 237.348 127.8 237.47 121.03Z" fill="white"/>
<path d="M341.341 68.3062H364.543V172.351H341.341V68.3062Z" fill="white"/>
<path d="M371.494 148.962V148.657C371.494 131.977 385.091 124.262 404.482 124.262C411.28 124.201 418.049 125.269 424.482 127.403V126.122C424.482 117.157 418.537 112.156 406.921 112.156C399.177 112.156 391.494 113.559 384.329 116.303L378.537 99.7453C388.476 95.4762 399.36 93.3721 410.305 93.6161C422.988 93.6161 432.134 96.7569 437.927 102.154C444.024 107.857 446.768 116.273 446.768 126.549V170.887H424.329V162.624C421.219 165.825 417.409 168.387 413.14 170.064C408.872 171.741 404.238 172.504 399.604 172.321C384.146 172.321 371.494 164.057 371.494 148.962ZM424.756 143.961V140.119C420.091 138.198 415.031 137.222 409.939 137.283C400 137.283 393.902 140.973 393.902 147.834V148.139C393.902 153.994 399.085 157.409 406.585 157.409C417.439 157.379 424.756 151.798 424.756 143.961Z" fill="white"/>
<path d="M450.732 160.794L460.671 146.553C468.079 151.981 477.073 155.153 486.463 155.671C493.171 155.671 496.219 153.384 496.219 149.969V149.694C496.219 144.998 488.293 143.412 479.268 140.851C467.835 137.71 454.848 132.709 454.848 117.92V117.615C454.848 102.093 468.293 93.3721 484.756 93.3721C495.64 93.5245 506.219 96.5739 515.274 102.215L506.433 117.188C499.787 113.163 492.195 110.723 484.299 110.052C478.659 110.052 475.762 112.339 475.762 115.328V115.633C475.762 119.902 483.537 121.914 492.409 124.75C503.841 128.318 517.134 133.441 517.134 147.407V147.712C517.134 164.667 503.537 172.382 485.823 172.382C473.079 172.229 460.732 168.173 450.732 160.794Z" fill="white"/>
<path d="M517.439 160.794L527.348 146.553C534.756 151.981 543.75 155.153 553.14 155.671C559.848 155.671 562.896 153.384 562.896 149.969V149.694C562.896 144.998 554.97 143.412 545.945 140.851C534.482 137.71 521.524 132.709 521.524 117.92V117.615C521.524 102.093 534.969 93.3721 551.433 93.3721C562.317 93.5245 572.896 96.5739 581.982 102.215L573.14 117.188C566.494 113.163 558.902 110.723 551.006 110.052C545.366 110.052 542.469 112.339 542.469 115.328V115.633C542.469 119.902 550.244 121.914 559.116 124.75C570.579 128.318 583.841 133.441 583.841 147.407V147.712C583.841 164.667 570.244 172.382 552.561 172.382C539.787 172.229 527.439 168.173 517.439 160.794Z" fill="white"/>
<path d="M587.896 121.03V120.725C587.774 113.894 589.116 107.094 591.89 100.752C594.665 94.4089 598.75 88.6456 603.963 83.8275C609.177 79.0095 615.366 75.2283 622.195 72.6973C629.024 70.1663 636.311 68.977 643.628 69.1295C663.781 69.1295 675.854 75.4112 685.762 84.5289L670.762 100.63C662.531 93.6465 654.116 89.3774 643.445 89.3774C625.427 89.3774 612.47 103.344 612.47 120.451V120.756C612.47 137.863 625.152 152.103 643.445 152.103C655.671 152.103 663.14 147.529 671.524 140.424L686.494 154.543C681.128 160.428 674.36 165.063 666.768 168.173C659.177 171.253 650.945 172.687 642.652 172.382C635.427 172.504 628.232 171.223 621.524 168.692C614.817 166.161 608.72 162.38 603.598 157.592C598.476 152.805 594.451 147.102 591.738 140.851C589.085 134.508 587.744 127.8 587.896 121.03Z" fill="white"/>
<path d="M686.463 132.862V132.557C686.463 110.601 705.396 92.7927 730.884 92.7927C756.22 92.7927 775 110.327 775 132.282V132.587C775 154.543 756.067 172.351 730.579 172.351C705.244 172.321 686.463 154.817 686.463 132.862ZM752.104 132.862V132.557C752.226 129.843 751.738 127.129 750.732 124.598C749.695 122.067 748.14 119.719 746.128 117.767C744.116 115.785 741.707 114.23 739.055 113.163C736.372 112.095 733.506 111.516 730.61 111.485C717.317 111.485 709.39 121.03 709.39 132.282V132.587C709.268 135.301 709.756 138.015 710.762 140.546C711.799 143.077 713.354 145.425 715.366 147.377C717.378 149.328 719.787 150.914 722.439 151.981C725.122 153.049 727.988 153.628 730.884 153.658C744.177 153.658 752.104 144.114 752.104 132.862Z" fill="white"/>
<path d="M770.152 95.3847H794.726L813.049 146.553L831.524 95.3847H855.64L823.415 172.351H802.348L770.152 95.3847Z" fill="white"/>
<path d="M850.762 132.862V132.557C850.762 110.754 867.409 92.7927 891.22 92.7927C918.537 92.7927 931.067 112.614 931.067 134.264C931.067 135.972 930.915 137.954 930.762 139.967H873.811C874.543 144.358 876.982 148.322 880.701 151.066C884.39 153.841 889.085 155.214 893.811 154.909C897.531 154.939 901.189 154.268 904.604 152.927C908.018 151.585 911.098 149.572 913.658 147.072L926.951 158.05C922.957 162.685 917.835 166.405 912.043 168.875C906.25 171.345 899.909 172.534 893.506 172.29C868.933 172.321 850.762 156.22 850.762 132.862ZM908.476 126.458C907.104 116.761 901.006 110.205 891.22 110.205C881.616 110.205 875.335 116.608 873.506 126.458H908.476Z" fill="white"/>
<path d="M938.476 95.9336H961.677V111.302C966.402 100.752 974.055 93.921 987.805 94.4699V117.127H986.585C971.159 117.127 961.707 125.848 961.707 144.053V172.26H938.506L938.476 95.9336Z" fill="white"/>
</svg>
