<svg width="1000" height="246" viewBox="0 0 1000 246" fill="none" xmlns="http://www.w3.org/2000/svg">
<path d="M99.1463 172.504C99.6341 172.929 100.244 173.172 100.884 173.141C102.012 173.111 103.018 172.443 103.476 171.41C126.677 117.594 169.238 76.7156 197.256 46.1326C197.683 45.7074 197.469 45.2822 197.256 44.857C197.073 44.6748 196.86 44.6141 196.616 44.6445C196.402 44.6445 196.402 44.6445 196.189 44.857C131.768 78.8719 98.7195 116.804 92.439 124.519C92.0426 124.944 91.4939 125.187 90.9451 125.156C90.5182 125.156 90.3048 124.944 89.8475 124.731L55.2134 101.741C55 101.528 54.7865 101.528 54.3597 101.528C53.6585 101.528 53.0792 102.105 53.0792 102.804V103.229C57.8048 115.438 73.1402 151.609 99.1463 172.504Z" fill="#BD78F3"/>
<path d="M170.579 93.9356V146.871C170.579 156.984 148.963 196.982 101.006 211.439C53.0488 196.77 31.4329 156.954 31.4329 146.871V44.1889C76.0366 26.1185 125.976 26.1185 170.579 44.1889C175.976 40.9696 181.799 37.7504 187.652 34.5007C185.701 31.2511 182.835 28.6393 179.451 26.9689C154.604 16.643 127.927 11.3282 101.006 11.2978C74.0853 11.237 47.4085 16.5519 22.5914 26.9993C16.3109 29.8237 12.2866 36.0496 12.2866 42.9437V146.901C12.2866 167.128 41.0366 213.625 96.128 230.207C97.7134 230.602 99.3902 230.815 101.067 230.815C102.744 230.815 104.421 230.602 106.037 230.177C161.128 213.838 189.878 167.341 189.878 146.871V72.6156C183.567 79.5096 177.073 86.4037 170.579 93.9356Z" fill="#3915A2"/>
<path d="M237.47 120.54V120.236C237.348 113.433 238.689 106.661 241.463 100.344C244.238 94.0267 248.323 88.2867 253.537 83.4882C258.75 78.6896 264.939 74.9237 271.768 72.403C278.598 69.8822 285.884 68.6978 293.201 68.8496C313.354 68.8496 325.427 75.1059 335.335 84.1867L320.366 100.222C312.134 93.2674 303.72 89.0156 293.049 89.0156C275.031 89.0156 262.043 102.925 262.043 119.963V120.267C262.043 137.304 274.726 151.487 293.049 151.487C305.274 151.487 312.744 146.932 321.128 139.856L336.098 153.917C330.732 159.779 323.963 164.395 316.402 167.493C308.811 170.56 300.579 171.987 292.287 171.684C285.061 171.805 277.866 170.56 271.159 168.009C264.451 165.488 258.354 161.722 253.232 156.954C248.11 152.186 244.085 146.507 241.372 140.281C238.659 133.964 237.348 127.282 237.47 120.54Z" fill="#3915A2"/>
<path d="M341.341 68.0296H364.543V171.653H341.341V68.0296Z" fill="#3915A2"/>
<path d="M371.494 148.359V148.056C371.494 131.443 385.091 123.759 404.482 123.759C411.28 123.699 418.049 124.761 424.482 126.887V125.612C424.482 116.683 418.537 111.702 406.921 111.702C399.177 111.702 391.494 113.099 384.329 115.833L378.537 99.3415C388.476 95.0896 399.36 92.9941 410.305 93.237C422.988 93.237 432.134 96.3652 437.927 101.741C444.024 107.42 446.768 115.802 446.768 126.037V170.196H424.329V161.965C421.219 165.154 417.409 167.705 413.14 169.376C408.872 171.046 404.238 171.805 399.604 171.623C384.146 171.623 371.494 163.393 371.494 148.359ZM424.756 143.379V139.552C420.091 137.639 415.031 136.667 409.939 136.727C400 136.727 393.902 140.402 393.902 147.236V147.539C393.902 153.37 399.085 156.772 406.585 156.772C417.439 156.741 424.756 151.184 424.756 143.379Z" fill="#3915A2"/>
<path d="M450.732 160.143L460.671 145.96C468.079 151.366 477.073 154.524 486.463 155.041C493.171 155.041 496.219 152.763 496.219 149.361V149.088C496.219 144.411 488.293 142.832 479.268 140.281C467.835 137.153 454.848 132.172 454.848 117.442V117.139C454.848 101.68 468.293 92.9941 484.756 92.9941C495.64 93.1459 506.219 96.183 515.274 101.801L506.433 116.713C499.787 112.704 492.195 110.275 484.299 109.607C478.659 109.607 475.762 111.884 475.762 114.861V115.164C475.762 119.416 483.537 121.421 492.409 124.245C503.841 127.799 517.134 132.901 517.134 146.81V147.114C517.134 164 503.537 171.684 485.823 171.684C473.079 171.532 460.732 167.493 450.732 160.143Z" fill="#3915A2"/>
<path d="M517.439 160.143L527.348 145.96C534.756 151.366 543.75 154.524 553.14 155.041C559.848 155.041 562.896 152.763 562.896 149.361V149.088C562.896 144.411 554.97 142.832 545.945 140.281C534.482 137.153 521.524 132.172 521.524 117.442V117.139C521.524 101.68 534.969 92.9941 551.433 92.9941C562.317 93.1459 572.896 96.183 581.982 101.801L573.14 116.713C566.494 112.704 558.902 110.275 551.006 109.607C545.366 109.607 542.469 111.884 542.469 114.861V115.164C542.469 119.416 550.244 121.421 559.116 124.245C570.579 127.799 583.841 132.901 583.841 146.81V147.114C583.841 164 570.244 171.684 552.561 171.684C539.787 171.532 527.439 167.493 517.439 160.143Z" fill="#3915A2"/>
<path d="M587.896 120.54V120.236C587.774 113.433 589.116 106.661 591.89 100.344C594.665 94.0267 598.75 88.2867 603.963 83.4882C609.177 78.6896 615.366 74.9237 622.195 72.403C629.024 69.8822 636.311 68.6978 643.628 68.8496C663.78 68.8496 675.854 75.1059 685.762 84.1867L670.762 100.222C662.53 93.2674 654.116 89.0156 643.445 89.0156C625.427 89.0156 612.469 102.925 612.469 119.963V120.267C612.469 137.304 625.152 151.487 643.445 151.487C655.671 151.487 663.14 146.932 671.524 139.856L686.494 153.917C681.128 159.779 674.36 164.395 666.768 167.493C659.177 170.56 650.945 171.987 642.652 171.684C635.427 171.805 628.232 170.53 621.524 168.009C614.817 165.488 608.719 161.722 603.598 156.954C598.476 152.186 594.451 146.507 591.738 140.281C589.085 133.964 587.744 127.282 587.896 120.54Z" fill="#3915A2"/>
<path d="M686.463 132.324V132.02C686.463 110.153 705.396 92.4171 730.884 92.4171C756.22 92.4171 775 109.88 775 131.747V132.05C775 153.917 756.067 171.653 730.579 171.653C705.244 171.623 686.463 154.19 686.463 132.324ZM752.104 132.324V132.02C752.226 129.317 751.738 126.614 750.732 124.093C749.695 121.573 748.14 119.234 746.128 117.29C744.116 115.316 741.707 113.767 739.055 112.704C736.372 111.641 733.506 111.064 730.61 111.034C717.317 111.034 709.39 120.54 709.39 131.747V132.05C709.268 134.753 709.756 137.456 710.762 139.977C711.799 142.498 713.354 144.836 715.366 146.78C717.378 148.724 719.787 150.303 722.439 151.366C725.122 152.429 727.988 153.006 730.884 153.036C744.177 153.036 752.104 143.53 752.104 132.324Z" fill="#3915A2"/>
<path d="M770.152 94.9985H794.726L813.049 145.96L831.524 94.9985H855.64L823.415 171.653H802.348L770.152 94.9985Z" fill="#3915A2"/>
<path d="M850.762 132.324V132.02C850.762 110.305 867.409 92.4171 891.22 92.4171C918.537 92.4171 931.067 112.158 931.067 133.721C931.067 135.421 930.915 137.396 930.762 139.4H873.811C874.543 143.773 876.982 147.721 880.701 150.455C884.39 153.219 889.085 154.585 893.811 154.281C897.531 154.312 901.189 153.644 904.604 152.307C908.018 150.971 911.098 148.967 913.659 146.476L926.951 157.41C922.957 162.026 917.835 165.731 912.043 168.191C906.25 170.651 899.909 171.836 893.506 171.593C868.933 171.623 850.762 155.587 850.762 132.324ZM908.476 125.946C907.104 116.288 901.006 109.759 891.22 109.759C881.616 109.759 875.335 116.136 873.506 125.946H908.476Z" fill="#3915A2"/>
<path d="M938.476 95.5452H961.677V110.852C966.402 100.344 974.055 93.5407 987.805 94.0874V116.653H986.585C971.159 116.653 961.707 125.339 961.707 143.47V171.562H938.506L938.476 95.5452Z" fill="#3915A2"/>
</svg>
