<svg width="186" height="221" viewBox="0 0 186 221" fill="none" xmlns="http://www.w3.org/2000/svg">
<path d="M86.8598 161.862C87.3476 162.289 87.9574 162.533 88.5976 162.502C89.7257 162.472 90.7317 161.801 91.1891 160.764C114.39 106.729 156.951 65.6842 184.97 34.9769C185.396 34.55 185.183 34.1231 184.97 33.6962C184.787 33.5132 184.573 33.4522 184.329 33.4827C184.116 33.4827 184.116 33.4827 183.902 33.6962C119.482 67.8493 86.433 105.936 80.1525 113.681C79.7561 114.108 79.2074 114.352 78.6586 114.322C78.2318 114.322 78.0183 114.108 77.561 113.895L42.9269 90.8111C42.7135 90.5976 42.5 90.5976 42.0732 90.5976C41.372 90.5976 40.7927 91.177 40.7927 91.8784V92.3053C45.5183 104.564 60.8537 140.882 86.8598 161.862Z" fill="#BD78F3"/>
<path d="M158.293 82.9742V136.125C158.293 146.279 136.677 186.44 88.7195 200.955C40.7622 186.226 19.1463 146.249 19.1463 136.125V33.0253C63.75 14.8815 113.689 14.8815 158.293 33.0253C163.689 29.793 169.512 26.5606 175.366 23.2978C173.415 20.035 170.549 17.4125 167.165 15.7353C142.317 5.36743 115.64 0.0310107 88.7195 0.000516888C61.7988 -0.0604708 35.122 5.27595 10.3049 15.7658C4.02439 18.6018 0 24.853 0 31.7751V136.155C0 156.464 28.75 203.15 83.8415 219.8C85.4268 220.196 87.1037 220.41 88.7805 220.41C90.4573 220.41 92.1341 220.196 93.75 219.77C148.841 203.364 177.591 156.678 177.591 136.125V61.5676C171.28 68.4896 164.787 75.4118 158.293 82.9742Z" fill="white"/>
</svg>
