<svg width="186" height="220" viewBox="0 0 186 220" fill="none" xmlns="http://www.w3.org/2000/svg">
<path d="M86.8598 161.206C87.3476 161.632 87.9574 161.875 88.5976 161.844C89.7257 161.814 90.7317 161.146 91.1891 160.113C114.39 106.297 156.951 65.4183 184.97 34.8353C185.396 34.4101 185.183 33.985 184.97 33.5598C184.787 33.3776 184.573 33.3168 184.329 33.3472C184.116 33.3472 184.116 33.3472 183.902 33.5598C119.482 67.5746 86.433 105.507 80.1525 113.221C79.7561 113.646 79.2074 113.889 78.6586 113.859C78.2318 113.859 78.0183 113.646 77.561 113.434L42.9269 90.4435C42.7135 90.2309 42.5 90.2309 42.0732 90.2309C41.372 90.2309 40.7927 90.8079 40.7927 91.5064V91.9316C45.5183 104.141 60.8537 140.312 86.8598 161.206Z" fill="#BD78F3"/>
<path d="M158.293 82.6383V135.574C158.293 145.687 136.677 185.685 88.7195 200.141C40.7622 185.472 19.1463 145.657 19.1463 135.574V32.8916C63.75 14.8213 113.689 14.8213 158.293 32.8916C163.689 29.6724 169.512 26.4531 175.366 23.2035C173.415 19.9538 170.549 17.342 167.165 15.6716C142.317 5.3457 115.64 0.0308852 88.7195 0.000514796C61.7988 -0.0602259 35.122 5.25459 10.3049 15.702C4.02439 18.5264 0 24.7524 0 31.6464V135.604C0 155.831 28.75 202.328 83.8415 218.91C85.4268 219.305 87.1037 219.518 88.7805 219.518C90.4573 219.518 92.1341 219.305 93.75 218.88C148.841 202.54 177.591 156.043 177.591 135.574V61.3183C171.28 68.2124 164.787 75.1064 158.293 82.6383Z" fill="#3915A2"/>
</svg>
